<mxfile host="Electron" modified="2023-12-02T19:54:58.660Z" agent="Mozilla/5.0 (Windows NT 10.0; Win64; x64) AppleWebKit/537.36 (KHTML, like Gecko) draw.io/21.8.2 Chrome/114.0.5735.289 Electron/25.8.1 Safari/537.36" etag="wGy7MF3AU7xlNjK7Ua8u" version="21.8.2" type="device">
  <diagram name="Page-1" id="2YBvvXClWsGukQMizWep">
    <mxGraphModel dx="2899" dy="2320" grid="1" gridSize="10" guides="1" tooltips="1" connect="1" arrows="1" fold="1" page="1" pageScale="1" pageWidth="850" pageHeight="1100" math="0" shadow="0">
      <root>
        <mxCell id="0" />
        <mxCell id="1" parent="0" />
        <mxCell id="Fk_k4UzwU_PlOsyObtsu-2" value="" style="rounded=0;whiteSpace=wrap;html=1;fillColor=#D2D2D2;strokeWidth=3;strokeColor=#FF4C2B;movable=1;resizable=1;rotatable=1;deletable=1;editable=1;locked=0;connectable=1;" vertex="1" parent="1">
          <mxGeometry x="-70" y="-10" width="1520" height="860" as="geometry" />
        </mxCell>
        <mxCell id="aM9ryv3xv72pqoxQDRHE-1" value="&lt;font style=&quot;font-size: 14px;&quot;&gt;&lt;b&gt;API Сервис&lt;/b&gt;&lt;/font&gt;" style="shape=umlLifeline;perimeter=lifelinePerimeter;whiteSpace=wrap;html=1;container=0;dropTarget=0;collapsible=0;recursiveResize=0;outlineConnect=0;portConstraint=eastwest;newEdgeStyle={&quot;edgeStyle&quot;:&quot;elbowEdgeStyle&quot;,&quot;elbow&quot;:&quot;vertical&quot;,&quot;curved&quot;:0,&quot;rounded&quot;:0};strokeWidth=2;strokeColor=#FF4C2B;fillColor=#0A1F32;" parent="1" vertex="1">
          <mxGeometry x="250" y="50" width="130" height="750" as="geometry" />
        </mxCell>
        <mxCell id="aM9ryv3xv72pqoxQDRHE-2" value="" style="html=1;points=[];perimeter=orthogonalPerimeter;outlineConnect=0;targetShapes=umlLifeline;portConstraint=eastwest;newEdgeStyle={&quot;edgeStyle&quot;:&quot;elbowEdgeStyle&quot;,&quot;elbow&quot;:&quot;vertical&quot;,&quot;curved&quot;:0,&quot;rounded&quot;:0};fillColor=#344756;" parent="aM9ryv3xv72pqoxQDRHE-1" vertex="1">
          <mxGeometry x="60" y="70" width="10" height="530" as="geometry" />
        </mxCell>
        <mxCell id="aM9ryv3xv72pqoxQDRHE-4" value="" style="html=1;points=[];perimeter=orthogonalPerimeter;outlineConnect=0;targetShapes=umlLifeline;portConstraint=eastwest;newEdgeStyle={&quot;edgeStyle&quot;:&quot;elbowEdgeStyle&quot;,&quot;elbow&quot;:&quot;vertical&quot;,&quot;curved&quot;:0,&quot;rounded&quot;:0};fillColor=#0A1F32;" parent="aM9ryv3xv72pqoxQDRHE-1" vertex="1">
          <mxGeometry x="65" y="120" width="10" height="80" as="geometry" />
        </mxCell>
        <mxCell id="bHfFdbvjbziyMw19bAwN-39" value="" style="html=1;points=[];perimeter=orthogonalPerimeter;outlineConnect=0;targetShapes=umlLifeline;portConstraint=eastwest;newEdgeStyle={&quot;edgeStyle&quot;:&quot;elbowEdgeStyle&quot;,&quot;elbow&quot;:&quot;vertical&quot;,&quot;curved&quot;:0,&quot;rounded&quot;:0};fillColor=#0A1F32;" parent="aM9ryv3xv72pqoxQDRHE-1" vertex="1">
          <mxGeometry x="65" y="458" width="10" height="122" as="geometry" />
        </mxCell>
        <mxCell id="aM9ryv3xv72pqoxQDRHE-5" value="&lt;b&gt;&lt;font style=&quot;font-size: 13px;&quot;&gt;БД&lt;/font&gt;&lt;/b&gt;" style="shape=umlLifeline;perimeter=lifelinePerimeter;whiteSpace=wrap;html=1;container=0;dropTarget=0;collapsible=0;recursiveResize=0;outlineConnect=0;portConstraint=eastwest;newEdgeStyle={&quot;edgeStyle&quot;:&quot;elbowEdgeStyle&quot;,&quot;elbow&quot;:&quot;vertical&quot;,&quot;curved&quot;:0,&quot;rounded&quot;:0};strokeWidth=2;strokeColor=#FF4C2B;fillColor=#0A1F32;" parent="1" vertex="1">
          <mxGeometry x="528" y="60" width="100" height="740" as="geometry" />
        </mxCell>
        <mxCell id="aM9ryv3xv72pqoxQDRHE-6" value="" style="html=1;points=[];perimeter=orthogonalPerimeter;outlineConnect=0;targetShapes=umlLifeline;portConstraint=eastwest;newEdgeStyle={&quot;edgeStyle&quot;:&quot;elbowEdgeStyle&quot;,&quot;elbow&quot;:&quot;vertical&quot;,&quot;curved&quot;:0,&quot;rounded&quot;:0};fillColor=#344756;" parent="aM9ryv3xv72pqoxQDRHE-5" vertex="1">
          <mxGeometry x="45" y="80" width="10" height="110" as="geometry" />
        </mxCell>
        <mxCell id="bHfFdbvjbziyMw19bAwN-40" value="" style="html=1;points=[];perimeter=orthogonalPerimeter;outlineConnect=0;targetShapes=umlLifeline;portConstraint=eastwest;newEdgeStyle={&quot;edgeStyle&quot;:&quot;elbowEdgeStyle&quot;,&quot;elbow&quot;:&quot;vertical&quot;,&quot;curved&quot;:0,&quot;rounded&quot;:0};fillColor=#344756;" parent="aM9ryv3xv72pqoxQDRHE-5" vertex="1">
          <mxGeometry x="45" y="419" width="10" height="111" as="geometry" />
        </mxCell>
        <mxCell id="aM9ryv3xv72pqoxQDRHE-7" value="" style="html=1;verticalAlign=bottom;endArrow=block;edgeStyle=elbowEdgeStyle;elbow=vertical;curved=0;rounded=0;strokeWidth=2;strokeColor=#0A1F32;" parent="1" source="aM9ryv3xv72pqoxQDRHE-2" target="aM9ryv3xv72pqoxQDRHE-6" edge="1">
          <mxGeometry relative="1" as="geometry">
            <mxPoint x="405" y="150" as="sourcePoint" />
            <Array as="points">
              <mxPoint x="390" y="140" />
            </Array>
          </mxGeometry>
        </mxCell>
        <mxCell id="bHfFdbvjbziyMw19bAwN-1" value="&lt;b&gt;&lt;font style=&quot;font-size: 13px;&quot;&gt;Kafka&lt;/font&gt;&lt;/b&gt;" style="shape=umlLifeline;perimeter=lifelinePerimeter;whiteSpace=wrap;html=1;container=0;dropTarget=0;collapsible=0;recursiveResize=0;outlineConnect=0;portConstraint=eastwest;newEdgeStyle={&quot;edgeStyle&quot;:&quot;elbowEdgeStyle&quot;,&quot;elbow&quot;:&quot;vertical&quot;,&quot;curved&quot;:0,&quot;rounded&quot;:0};strokeWidth=2;strokeColor=#FF4C2B;fillColor=#0A1F32;" parent="1" vertex="1">
          <mxGeometry x="688" y="60" width="100" height="740" as="geometry" />
        </mxCell>
        <mxCell id="bHfFdbvjbziyMw19bAwN-2" value="" style="html=1;points=[];perimeter=orthogonalPerimeter;outlineConnect=0;targetShapes=umlLifeline;portConstraint=eastwest;newEdgeStyle={&quot;edgeStyle&quot;:&quot;elbowEdgeStyle&quot;,&quot;elbow&quot;:&quot;vertical&quot;,&quot;curved&quot;:0,&quot;rounded&quot;:0};fillColor=#344756;" parent="bHfFdbvjbziyMw19bAwN-1" vertex="1">
          <mxGeometry x="45" y="280" width="10" height="290" as="geometry" />
        </mxCell>
        <mxCell id="bHfFdbvjbziyMw19bAwN-3" value="" style="shape=flexArrow;endArrow=classic;html=1;rounded=0;strokeWidth=2;strokeColor=#FF4C2B;" parent="1" edge="1">
          <mxGeometry width="50" height="50" relative="1" as="geometry">
            <mxPoint x="150" y="310" as="sourcePoint" />
            <mxPoint x="150" y="790" as="targetPoint" />
          </mxGeometry>
        </mxCell>
        <mxCell id="bHfFdbvjbziyMw19bAwN-5" value="&lt;font style=&quot;font-size: 20px;&quot;&gt;&lt;b&gt;Time&lt;/b&gt;&lt;/font&gt;" style="edgeLabel;html=1;align=center;verticalAlign=middle;resizable=0;points=[];labelBackgroundColor=#D2D2D2;fontColor=#0A1F32;fontSize=13;" parent="bHfFdbvjbziyMw19bAwN-3" vertex="1" connectable="0">
          <mxGeometry x="-0.0742" y="1" relative="1" as="geometry">
            <mxPoint as="offset" />
          </mxGeometry>
        </mxCell>
        <mxCell id="bHfFdbvjbziyMw19bAwN-6" value="&lt;font size=&quot;1&quot; color=&quot;#0a1f32&quot;&gt;&lt;b style=&quot;font-size: 15px;&quot;&gt;Пользователь / Сообщество&lt;/b&gt;&lt;/font&gt;" style="shape=umlActor;verticalLabelPosition=bottom;verticalAlign=top;html=1;outlineConnect=0;strokeWidth=3;strokeColor=#344756;fillColor=#344756;" parent="1" vertex="1">
          <mxGeometry y="20" width="90" height="200" as="geometry" />
        </mxCell>
        <mxCell id="aM9ryv3xv72pqoxQDRHE-3" value="" style="html=1;verticalAlign=bottom;startArrow=oval;endArrow=block;startSize=8;elbow=vertical;rounded=0;exitX=0.5;exitY=0.5;exitDx=0;exitDy=0;exitPerimeter=0;strokeWidth=2;strokeColor=#0A1F32;" parent="1" source="bHfFdbvjbziyMw19bAwN-6" target="aM9ryv3xv72pqoxQDRHE-2" edge="1">
          <mxGeometry relative="1" as="geometry">
            <mxPoint x="120" y="130" as="sourcePoint" />
          </mxGeometry>
        </mxCell>
        <mxCell id="bHfFdbvjbziyMw19bAwN-8" value="&lt;b style=&quot;font-size: 13px;&quot;&gt;Telegram&amp;nbsp;&lt;br&gt;сервис&lt;/b&gt;" style="shape=umlLifeline;perimeter=lifelinePerimeter;whiteSpace=wrap;html=1;container=0;dropTarget=0;collapsible=0;recursiveResize=0;outlineConnect=0;portConstraint=eastwest;newEdgeStyle={&quot;edgeStyle&quot;:&quot;elbowEdgeStyle&quot;,&quot;elbow&quot;:&quot;vertical&quot;,&quot;curved&quot;:0,&quot;rounded&quot;:0};strokeWidth=2;strokeColor=#FF4C2B;fillColor=#0A1F32;" parent="1" vertex="1">
          <mxGeometry x="840" y="60" width="100" height="740" as="geometry" />
        </mxCell>
        <mxCell id="bHfFdbvjbziyMw19bAwN-9" value="" style="html=1;points=[];perimeter=orthogonalPerimeter;outlineConnect=0;targetShapes=umlLifeline;portConstraint=eastwest;newEdgeStyle={&quot;edgeStyle&quot;:&quot;elbowEdgeStyle&quot;,&quot;elbow&quot;:&quot;vertical&quot;,&quot;curved&quot;:0,&quot;rounded&quot;:0};fillColor=#344756;" parent="bHfFdbvjbziyMw19bAwN-8" vertex="1">
          <mxGeometry x="45" y="280" width="10" height="220" as="geometry" />
        </mxCell>
        <mxCell id="bHfFdbvjbziyMw19bAwN-13" value="" style="html=1;verticalAlign=bottom;endArrow=block;edgeStyle=elbowEdgeStyle;elbow=vertical;curved=0;rounded=0;strokeWidth=2;strokeColor=#0A1F32;" parent="1" edge="1" source="aM9ryv3xv72pqoxQDRHE-2">
          <mxGeometry x="0.1084" y="10" relative="1" as="geometry">
            <mxPoint x="330" y="340" as="sourcePoint" />
            <Array as="points">
              <mxPoint x="400" y="340" />
            </Array>
            <mxPoint x="735" y="340" as="targetPoint" />
            <mxPoint as="offset" />
          </mxGeometry>
        </mxCell>
        <mxCell id="bHfFdbvjbziyMw19bAwN-15" value="" style="html=1;verticalAlign=bottom;endArrow=open;dashed=1;endSize=8;edgeStyle=elbowEdgeStyle;elbow=vertical;curved=0;rounded=0;strokeWidth=2;strokeColor=#0A1F32;" parent="1" edge="1">
          <mxGeometry relative="1" as="geometry">
            <mxPoint x="50" y="145" as="targetPoint" />
            <Array as="points">
              <mxPoint x="145" y="145" />
            </Array>
            <mxPoint x="295" y="145" as="sourcePoint" />
          </mxGeometry>
        </mxCell>
        <mxCell id="bHfFdbvjbziyMw19bAwN-16" value="&lt;b style=&quot;font-size: 13px;&quot;&gt;Почта&amp;nbsp;&lt;br&gt;сервис&lt;/b&gt;" style="shape=umlLifeline;perimeter=lifelinePerimeter;whiteSpace=wrap;html=1;container=0;dropTarget=0;collapsible=0;recursiveResize=0;outlineConnect=0;portConstraint=eastwest;newEdgeStyle={&quot;edgeStyle&quot;:&quot;elbowEdgeStyle&quot;,&quot;elbow&quot;:&quot;vertical&quot;,&quot;curved&quot;:0,&quot;rounded&quot;:0};strokeWidth=2;strokeColor=#FF4C2B;fillColor=#0A1F32;" parent="1" vertex="1">
          <mxGeometry x="1000" y="60" width="100" height="740" as="geometry" />
        </mxCell>
        <mxCell id="bHfFdbvjbziyMw19bAwN-17" value="" style="html=1;points=[];perimeter=orthogonalPerimeter;outlineConnect=0;targetShapes=umlLifeline;portConstraint=eastwest;newEdgeStyle={&quot;edgeStyle&quot;:&quot;elbowEdgeStyle&quot;,&quot;elbow&quot;:&quot;vertical&quot;,&quot;curved&quot;:0,&quot;rounded&quot;:0};fillColor=#344756;" parent="bHfFdbvjbziyMw19bAwN-16" vertex="1">
          <mxGeometry x="45" y="270" width="10" height="220" as="geometry" />
        </mxCell>
        <mxCell id="bHfFdbvjbziyMw19bAwN-18" value="&lt;b style=&quot;font-size: 13px;&quot;&gt;Пуш&lt;br&gt;сервис&lt;/b&gt;" style="shape=umlLifeline;perimeter=lifelinePerimeter;whiteSpace=wrap;html=1;container=0;dropTarget=0;collapsible=0;recursiveResize=0;outlineConnect=0;portConstraint=eastwest;newEdgeStyle={&quot;edgeStyle&quot;:&quot;elbowEdgeStyle&quot;,&quot;elbow&quot;:&quot;vertical&quot;,&quot;curved&quot;:0,&quot;rounded&quot;:0};strokeWidth=2;strokeColor=#FF4C2B;fillColor=#0A1F32;" parent="1" vertex="1">
          <mxGeometry x="1160" y="60" width="100" height="740" as="geometry" />
        </mxCell>
        <mxCell id="bHfFdbvjbziyMw19bAwN-19" value="" style="html=1;points=[];perimeter=orthogonalPerimeter;outlineConnect=0;targetShapes=umlLifeline;portConstraint=eastwest;newEdgeStyle={&quot;edgeStyle&quot;:&quot;elbowEdgeStyle&quot;,&quot;elbow&quot;:&quot;vertical&quot;,&quot;curved&quot;:0,&quot;rounded&quot;:0};fillColor=#344756;" parent="bHfFdbvjbziyMw19bAwN-18" vertex="1">
          <mxGeometry x="45" y="270" width="10" height="230" as="geometry" />
        </mxCell>
        <mxCell id="bHfFdbvjbziyMw19bAwN-53" value="&lt;span style=&quot;font-size: 13px;&quot;&gt;&lt;b&gt;Мобильный&lt;br&gt;клиент&lt;br&gt;&lt;/b&gt;&lt;/span&gt;" style="shape=umlLifeline;perimeter=lifelinePerimeter;whiteSpace=wrap;html=1;container=0;dropTarget=0;collapsible=0;recursiveResize=0;outlineConnect=0;portConstraint=eastwest;newEdgeStyle={&quot;edgeStyle&quot;:&quot;elbowEdgeStyle&quot;,&quot;elbow&quot;:&quot;vertical&quot;,&quot;curved&quot;:0,&quot;rounded&quot;:0};strokeWidth=2;strokeColor=#FF4C2B;fillColor=#0A1F32;" parent="1" vertex="1">
          <mxGeometry x="1300" y="60" width="100" height="740" as="geometry" />
        </mxCell>
        <mxCell id="bHfFdbvjbziyMw19bAwN-54" value="" style="html=1;points=[];perimeter=orthogonalPerimeter;outlineConnect=0;targetShapes=umlLifeline;portConstraint=eastwest;newEdgeStyle={&quot;edgeStyle&quot;:&quot;elbowEdgeStyle&quot;,&quot;elbow&quot;:&quot;vertical&quot;,&quot;curved&quot;:0,&quot;rounded&quot;:0};" parent="bHfFdbvjbziyMw19bAwN-53" vertex="1">
          <mxGeometry x="45" y="365" width="10" height="125" as="geometry" />
        </mxCell>
        <mxCell id="Fk_k4UzwU_PlOsyObtsu-7" value="&lt;font color=&quot;#0a1f32&quot; style=&quot;font-size: 12px;&quot;&gt;&lt;b&gt;Запрос на рассылку по созданному шаблону&lt;/b&gt;&lt;/font&gt;" style="text;html=1;strokeColor=none;fillColor=none;align=center;verticalAlign=middle;whiteSpace=wrap;rounded=0;" vertex="1" parent="1">
          <mxGeometry x="100" y="89" width="150" height="30" as="geometry" />
        </mxCell>
        <mxCell id="Fk_k4UzwU_PlOsyObtsu-8" value="&lt;font color=&quot;#0a1f32&quot;&gt;&lt;b&gt;Возврат статуса выполнения рассылки&lt;/b&gt;&lt;/font&gt;" style="text;html=1;strokeColor=none;fillColor=none;align=center;verticalAlign=middle;whiteSpace=wrap;rounded=0;" vertex="1" parent="1">
          <mxGeometry x="100" y="150" width="150" height="30" as="geometry" />
        </mxCell>
        <mxCell id="Fk_k4UzwU_PlOsyObtsu-9" value="&lt;font color=&quot;#0a1f32&quot; style=&quot;font-size: 12px;&quot;&gt;&lt;b&gt;Запись шаблона&amp;nbsp; в бд&lt;/b&gt;&lt;/font&gt;" style="text;html=1;strokeColor=none;fillColor=none;align=center;verticalAlign=middle;whiteSpace=wrap;rounded=0;" vertex="1" parent="1">
          <mxGeometry x="370" y="115" width="150" height="30" as="geometry" />
        </mxCell>
        <mxCell id="Fk_k4UzwU_PlOsyObtsu-11" value="&lt;font color=&quot;#0a1f32&quot;&gt;&lt;b&gt;Запрос на получение шаблона&lt;/b&gt;&lt;/font&gt;" style="text;html=1;strokeColor=none;fillColor=none;align=center;verticalAlign=middle;whiteSpace=wrap;rounded=0;" vertex="1" parent="1">
          <mxGeometry x="359" y="155" width="200" height="30" as="geometry" />
        </mxCell>
        <mxCell id="aM9ryv3xv72pqoxQDRHE-9" value="" style="html=1;verticalAlign=bottom;endArrow=block;edgeStyle=elbowEdgeStyle;elbow=horizontal;curved=0;rounded=0;strokeWidth=2;strokeColor=#0A1F32;" parent="1" source="aM9ryv3xv72pqoxQDRHE-4" target="aM9ryv3xv72pqoxQDRHE-6" edge="1">
          <mxGeometry relative="1" as="geometry">
            <mxPoint x="385" y="180" as="sourcePoint" />
            <Array as="points">
              <mxPoint x="400" y="180" />
            </Array>
          </mxGeometry>
        </mxCell>
        <mxCell id="aM9ryv3xv72pqoxQDRHE-10" value="" style="html=1;verticalAlign=bottom;endArrow=open;dashed=1;endSize=8;edgeStyle=elbowEdgeStyle;elbow=vertical;curved=0;rounded=0;strokeColor=#0A1F32;strokeWidth=2;" parent="1" source="aM9ryv3xv72pqoxQDRHE-6" target="aM9ryv3xv72pqoxQDRHE-4" edge="1">
          <mxGeometry relative="1" as="geometry">
            <mxPoint x="385" y="255" as="targetPoint" />
            <Array as="points">
              <mxPoint x="390" y="250" />
            </Array>
          </mxGeometry>
        </mxCell>
        <mxCell id="Fk_k4UzwU_PlOsyObtsu-12" value="&lt;font color=&quot;#0a1f32&quot;&gt;&lt;b&gt;Возврат данных&lt;/b&gt;&lt;/font&gt;" style="text;html=1;strokeColor=none;fillColor=none;align=center;verticalAlign=middle;whiteSpace=wrap;rounded=0;" vertex="1" parent="1">
          <mxGeometry x="359" y="223" width="200" height="30" as="geometry" />
        </mxCell>
        <mxCell id="Fk_k4UzwU_PlOsyObtsu-13" value="&lt;font color=&quot;#0a1f32&quot;&gt;&lt;b&gt;Формирование очередей по топикам&lt;/b&gt;&lt;/font&gt;" style="text;html=1;strokeColor=none;fillColor=none;align=center;verticalAlign=middle;whiteSpace=wrap;rounded=0;" vertex="1" parent="1">
          <mxGeometry x="350" y="310" width="230" height="30" as="geometry" />
        </mxCell>
        <mxCell id="Fk_k4UzwU_PlOsyObtsu-15" value="" style="endArrow=classic;html=1;rounded=0;strokeWidth=2;strokeColor=#FF4C2B;" edge="1" parent="1">
          <mxGeometry relative="1" as="geometry">
            <mxPoint x="745" y="343" as="sourcePoint" />
            <mxPoint x="885" y="343" as="targetPoint" />
          </mxGeometry>
        </mxCell>
        <mxCell id="Fk_k4UzwU_PlOsyObtsu-16" value="" style="shape=message;html=1;outlineConnect=0;fillColor=#0A1F32;strokeWidth=2;" vertex="1" parent="Fk_k4UzwU_PlOsyObtsu-15">
          <mxGeometry width="30" height="20" relative="1" as="geometry">
            <mxPoint x="-20" y="-10" as="offset" />
          </mxGeometry>
        </mxCell>
        <mxCell id="Fk_k4UzwU_PlOsyObtsu-17" value="" style="endArrow=classic;html=1;rounded=0;strokeWidth=2;strokeColor=#FF4C2B;" edge="1" parent="1" source="bHfFdbvjbziyMw19bAwN-2">
          <mxGeometry relative="1" as="geometry">
            <mxPoint x="740" y="366" as="sourcePoint" />
            <mxPoint x="1045" y="366" as="targetPoint" />
          </mxGeometry>
        </mxCell>
        <mxCell id="Fk_k4UzwU_PlOsyObtsu-18" value="" style="shape=message;html=1;outlineConnect=0;fillColor=#0A1F32;strokeWidth=2;" vertex="1" parent="Fk_k4UzwU_PlOsyObtsu-17">
          <mxGeometry width="30" height="20" relative="1" as="geometry">
            <mxPoint x="15" y="-10" as="offset" />
          </mxGeometry>
        </mxCell>
        <mxCell id="Fk_k4UzwU_PlOsyObtsu-19" value="" style="endArrow=classic;html=1;rounded=0;strokeWidth=2;strokeColor=#FF4C2B;" edge="1" parent="1">
          <mxGeometry relative="1" as="geometry">
            <mxPoint x="745" y="387" as="sourcePoint" />
            <mxPoint x="1205" y="387" as="targetPoint" />
          </mxGeometry>
        </mxCell>
        <mxCell id="Fk_k4UzwU_PlOsyObtsu-20" value="" style="shape=message;html=1;outlineConnect=0;fillColor=#0A1F32;strokeWidth=2;" vertex="1" parent="Fk_k4UzwU_PlOsyObtsu-19">
          <mxGeometry width="30" height="20" relative="1" as="geometry">
            <mxPoint x="15" y="-10" as="offset" />
          </mxGeometry>
        </mxCell>
        <mxCell id="Fk_k4UzwU_PlOsyObtsu-25" style="edgeStyle=orthogonalEdgeStyle;rounded=0;orthogonalLoop=1;jettySize=auto;html=1;strokeColor=#344756;" edge="1" parent="1" source="Fk_k4UzwU_PlOsyObtsu-22">
          <mxGeometry relative="1" as="geometry">
            <mxPoint x="930" y="350" as="targetPoint" />
          </mxGeometry>
        </mxCell>
        <mxCell id="Fk_k4UzwU_PlOsyObtsu-22" value="" style="rounded=1;whiteSpace=wrap;html=1;strokeWidth=2;fillWeight=4;hachureGap=8;hachureAngle=45;fillColor=#1ba1e2;sketch=1;" vertex="1" parent="1">
          <mxGeometry x="840" y="223" width="260" height="70" as="geometry" />
        </mxCell>
        <mxCell id="Fk_k4UzwU_PlOsyObtsu-24" style="edgeStyle=orthogonalEdgeStyle;rounded=0;orthogonalLoop=1;jettySize=auto;html=1;exitX=0;exitY=0.5;exitDx=0;exitDy=0;strokeColor=#344756;" edge="1" parent="1" source="Fk_k4UzwU_PlOsyObtsu-22">
          <mxGeometry relative="1" as="geometry">
            <mxPoint x="810" y="330.0000000000002" as="targetPoint" />
          </mxGeometry>
        </mxCell>
        <mxCell id="Fk_k4UzwU_PlOsyObtsu-26" style="edgeStyle=orthogonalEdgeStyle;rounded=0;orthogonalLoop=1;jettySize=auto;html=1;entryX=0.5;entryY=0;entryDx=0;entryDy=0;exitX=0.75;exitY=1;exitDx=0;exitDy=0;strokeColor=#344756;" edge="1" parent="1" source="Fk_k4UzwU_PlOsyObtsu-22" target="Fk_k4UzwU_PlOsyObtsu-20">
          <mxGeometry relative="1" as="geometry" />
        </mxCell>
        <mxCell id="Fk_k4UzwU_PlOsyObtsu-23" value="&lt;font color=&quot;#0a1f32&quot; style=&quot;font-size: 17px;&quot;&gt;&lt;b style=&quot;&quot;&gt;Эти действия происходят одновременно&lt;/b&gt;&lt;/font&gt;" style="text;html=1;strokeColor=none;fillColor=none;align=center;verticalAlign=middle;whiteSpace=wrap;rounded=0;strokeWidth=3;" vertex="1" parent="1">
          <mxGeometry x="850" y="228" width="230" height="60" as="geometry" />
        </mxCell>
        <mxCell id="Fk_k4UzwU_PlOsyObtsu-30" style="rounded=0;orthogonalLoop=1;jettySize=auto;html=1;strokeWidth=2;strokeColor=#344756;" edge="1" parent="1" source="Fk_k4UzwU_PlOsyObtsu-29" target="bHfFdbvjbziyMw19bAwN-19">
          <mxGeometry relative="1" as="geometry" />
        </mxCell>
        <mxCell id="Fk_k4UzwU_PlOsyObtsu-31" style="rounded=0;orthogonalLoop=1;jettySize=auto;html=1;exitX=0.25;exitY=0;exitDx=0;exitDy=0;strokeWidth=2;strokeColor=#344756;" edge="1" parent="1" source="Fk_k4UzwU_PlOsyObtsu-29" target="bHfFdbvjbziyMw19bAwN-9">
          <mxGeometry relative="1" as="geometry" />
        </mxCell>
        <mxCell id="Fk_k4UzwU_PlOsyObtsu-32" style="rounded=0;orthogonalLoop=1;jettySize=auto;html=1;strokeWidth=2;strokeColor=#344756;exitX=0.614;exitY=-0.014;exitDx=0;exitDy=0;exitPerimeter=0;" edge="1" parent="1" source="Fk_k4UzwU_PlOsyObtsu-29" target="bHfFdbvjbziyMw19bAwN-17">
          <mxGeometry relative="1" as="geometry" />
        </mxCell>
        <mxCell id="Fk_k4UzwU_PlOsyObtsu-29" value="&lt;h1 style=&quot;&quot;&gt;&lt;font style=&quot;font-size: 24px;&quot; color=&quot;#ffffff&quot;&gt;Workers&lt;/font&gt;&lt;/h1&gt;&lt;p style=&quot;&quot;&gt;&lt;font style=&quot;font-size: 17px;&quot; color=&quot;#ffffff&quot;&gt;Это сервисы обработки очередей уведомлений, и отправки их конечному пользователю.&lt;/font&gt;&lt;/p&gt;" style="text;html=1;strokeColor=#0A1F32;fillColor=#344756;spacing=5;spacingTop=-20;whiteSpace=wrap;overflow=hidden;rounded=0;strokeWidth=2;" vertex="1" parent="1">
          <mxGeometry x="940" y="630" width="220" height="140" as="geometry" />
        </mxCell>
        <mxCell id="Fk_k4UzwU_PlOsyObtsu-33" value="" style="endArrow=classic;html=1;rounded=0;strokeWidth=2;strokeColor=#344756;" edge="1" parent="1">
          <mxGeometry relative="1" as="geometry">
            <mxPoint x="1215" y="485" as="sourcePoint" />
            <mxPoint x="1345" y="485" as="targetPoint" />
          </mxGeometry>
        </mxCell>
        <mxCell id="Fk_k4UzwU_PlOsyObtsu-34" value="" style="shape=message;html=1;outlineConnect=0;fillColor=#0A1F32;strokeWidth=2;" vertex="1" parent="Fk_k4UzwU_PlOsyObtsu-33">
          <mxGeometry width="30" height="20" relative="1" as="geometry">
            <mxPoint x="-20" y="-10" as="offset" />
          </mxGeometry>
        </mxCell>
        <mxCell id="Fk_k4UzwU_PlOsyObtsu-35" value="&lt;font color=&quot;#0a1f32&quot;&gt;&lt;b&gt;Доставка&lt;br&gt;пуш-уведомлений&lt;br&gt;&lt;/b&gt;&lt;/font&gt;" style="text;html=1;strokeColor=none;fillColor=none;align=center;verticalAlign=middle;whiteSpace=wrap;rounded=0;" vertex="1" parent="1">
          <mxGeometry x="1200" y="440" width="150" height="30" as="geometry" />
        </mxCell>
        <mxCell id="Fk_k4UzwU_PlOsyObtsu-36" value="" style="html=1;verticalAlign=bottom;endArrow=open;dashed=1;endSize=8;elbow=vertical;rounded=0;strokeColor=#0A1F32;strokeWidth=2;" edge="1" parent="1" source="bHfFdbvjbziyMw19bAwN-2" target="bHfFdbvjbziyMw19bAwN-40">
          <mxGeometry relative="1" as="geometry">
            <mxPoint x="580" y="697" as="targetPoint" />
            <mxPoint x="828" y="697" as="sourcePoint" />
          </mxGeometry>
        </mxCell>
        <mxCell id="Fk_k4UzwU_PlOsyObtsu-37" value="&lt;font color=&quot;#0a1f32&quot;&gt;&lt;b&gt;Возврат информации &lt;br&gt;о неотправленных уведомлениях&lt;br&gt;&lt;/b&gt;&lt;/font&gt;" style="text;html=1;strokeColor=none;fillColor=none;align=center;verticalAlign=middle;whiteSpace=wrap;rounded=0;" vertex="1" parent="1">
          <mxGeometry x="559" y="444" width="200" height="30" as="geometry" />
        </mxCell>
        <mxCell id="Fk_k4UzwU_PlOsyObtsu-39" value="&lt;font color=&quot;#0a1f32&quot;&gt;&lt;b&gt;Запрос на получение информации о сбоях&lt;/b&gt;&lt;/font&gt;" style="text;html=1;strokeColor=none;fillColor=none;align=center;verticalAlign=middle;whiteSpace=wrap;rounded=0;" vertex="1" parent="1">
          <mxGeometry x="355" y="480" width="200" height="30" as="geometry" />
        </mxCell>
        <mxCell id="Fk_k4UzwU_PlOsyObtsu-40" value="" style="html=1;verticalAlign=bottom;endArrow=block;edgeStyle=elbowEdgeStyle;elbow=horizontal;curved=0;rounded=0;strokeWidth=2;strokeColor=#0A1F32;" edge="1" parent="1" source="bHfFdbvjbziyMw19bAwN-39" target="bHfFdbvjbziyMw19bAwN-40">
          <mxGeometry relative="1" as="geometry">
            <mxPoint x="330" y="515" as="sourcePoint" />
            <Array as="points">
              <mxPoint x="396" y="515" />
            </Array>
            <mxPoint x="569" y="515" as="targetPoint" />
          </mxGeometry>
        </mxCell>
        <mxCell id="Fk_k4UzwU_PlOsyObtsu-41" value="" style="html=1;verticalAlign=bottom;endArrow=open;dashed=1;endSize=8;edgeStyle=elbowEdgeStyle;elbow=vertical;curved=0;rounded=0;strokeColor=#0A1F32;strokeWidth=2;" edge="1" parent="1" source="bHfFdbvjbziyMw19bAwN-40" target="bHfFdbvjbziyMw19bAwN-39">
          <mxGeometry relative="1" as="geometry">
            <mxPoint x="321" y="585" as="targetPoint" />
            <Array as="points">
              <mxPoint x="386" y="585" />
            </Array>
            <mxPoint x="569" y="585" as="sourcePoint" />
          </mxGeometry>
        </mxCell>
        <mxCell id="Fk_k4UzwU_PlOsyObtsu-42" value="&lt;font color=&quot;#0a1f32&quot;&gt;&lt;b&gt;Возврат данных&lt;/b&gt;&lt;/font&gt;" style="text;html=1;strokeColor=none;fillColor=none;align=center;verticalAlign=middle;whiteSpace=wrap;rounded=0;" vertex="1" parent="1">
          <mxGeometry x="355" y="558" width="200" height="30" as="geometry" />
        </mxCell>
        <mxCell id="Fk_k4UzwU_PlOsyObtsu-43" value="" style="html=1;verticalAlign=bottom;endArrow=block;elbow=vertical;rounded=0;strokeWidth=2;strokeColor=#0A1F32;" edge="1" parent="1">
          <mxGeometry x="0.1084" y="10" relative="1" as="geometry">
            <mxPoint x="325" y="626" as="sourcePoint" />
            <mxPoint x="733" y="626" as="targetPoint" />
            <mxPoint as="offset" />
          </mxGeometry>
        </mxCell>
        <mxCell id="Fk_k4UzwU_PlOsyObtsu-44" value="&lt;font color=&quot;#0a1f32&quot;&gt;&lt;b&gt;Повторная запись в очередь&lt;/b&gt;&lt;/font&gt;" style="text;html=1;strokeColor=none;fillColor=none;align=center;verticalAlign=middle;whiteSpace=wrap;rounded=0;" vertex="1" parent="1">
          <mxGeometry x="344" y="600" width="230" height="30" as="geometry" />
        </mxCell>
        <mxCell id="Fk_k4UzwU_PlOsyObtsu-45" value="" style="shape=image;html=1;verticalLabelPosition=bottom;verticalAlign=top;imageAspect=1;aspect=fixed;image=img/clipart/Gear_128x128.png" vertex="1" parent="1">
          <mxGeometry x="1120" y="640" width="26.43" height="31" as="geometry" />
        </mxCell>
        <mxCell id="Fk_k4UzwU_PlOsyObtsu-48" value="&lt;font size=&quot;1&quot; color=&quot;#0a1f32&quot; style=&quot;&quot;&gt;&lt;b style=&quot;font-size: 25px;&quot;&gt;Область зацикливания&lt;/b&gt;&lt;/font&gt;" style="text;html=1;strokeColor=none;fillColor=none;align=center;verticalAlign=middle;whiteSpace=wrap;rounded=0;rotation=-90;" vertex="1" parent="1">
          <mxGeometry x="50" y="516" width="420" height="42" as="geometry" />
        </mxCell>
        <mxCell id="Fk_k4UzwU_PlOsyObtsu-49" value="" style="points=[[0.25,0,0],[0.5,0,0],[0.75,0,0],[1,0.25,0],[1,0.5,0],[1,0.75,0],[0.75,1,0],[0.5,1,0],[0.25,1,0],[0,0.75,0],[0,0.5,0],[0,0.25,0]];shape=mxgraph.bpmn.task;whiteSpace=wrap;rectStyle=rounded;size=10;html=1;container=1;expand=0;collapsible=0;taskMarker=abstract;isLoopStandard=1;dashed=1;fillColor=none;strokeColor=#0A1F32;strokeWidth=4;" vertex="1" parent="1">
          <mxGeometry x="290" y="310" width="1090" height="470" as="geometry" />
        </mxCell>
      </root>
    </mxGraphModel>
  </diagram>
</mxfile>
